<svg width="72" height="53" viewBox="0 0 72 53" fill="none" xmlns="http://www.w3.org/2000/svg">
<path d="M36.6079 27.8641C36.2492 28.1388 35.7508 28.1388 35.3921 27.8641L1.34305 1.79399C0.584009 1.21282 0.994999 0 1.95098 0H70.049C71.005 0 71.416 1.21282 70.6569 1.79399L36.6079 27.8641ZM36.6296 35.3268C36.2626 35.6243 35.7374 35.6243 35.3704 35.3268L2.62962 8.79317C1.97589 8.26338 1 8.72863 1 9.57007V51.5C1 52.0523 1.44772 52.5 2 52.5H70C70.5523 52.5 71 52.0523 71 51.5V9.57008C71 8.72863 70.0241 8.26338 69.3704 8.79317L36.6296 35.3268Z" fill="black"/>
<path d="M36.6079 27.8641C36.2492 28.1388 35.7508 28.1388 35.3921 27.8641L1.34305 1.79399C0.584009 1.21282 0.994999 0 1.95098 0H70.049C71.005 0 71.416 1.21282 70.6569 1.79399L36.6079 27.8641ZM36.6296 35.3268C36.2626 35.6243 35.7374 35.6243 35.3704 35.3268L2.62962 8.79317C1.97589 8.26338 1 8.72863 1 9.57007V51.5C1 52.0523 1.44772 52.5 2 52.5H70C70.5523 52.5 71 52.0523 71 51.5V9.57008C71 8.72863 70.0241 8.26338 69.3704 8.79317L36.6296 35.3268Z" fill="url(#paint0_linear_15_40)"/>
<defs>
<linearGradient id="paint0_linear_15_40" x1="36" y1="0" x2="36" y2="52.5" gradientUnits="userSpaceOnUse">
<stop stop-color="#FFCCAA"/>
<stop offset="1" stop-color="#D4966A"/>
</linearGradient>
</defs>
</svg>
