<svg width="70" height="70" viewBox="0 0 70 70" fill="none" xmlns="http://www.w3.org/2000/svg">
<path d="M61.6667 0H8.33333C3.73333 0 0 3.73333 0 8.33333V61.6667C0 66.2667 3.73333 70 8.33333 70H61.6667C66.2667 70 70 66.2667 70 61.6667V8.33333C70 3.73333 66.2667 0 61.6667 0ZM55 25H51.6667C48.1 25 46.6667 25.8333 46.6667 28.3333V33.3333H55L53.3333 41.6667H46.6667V66.6667H38.3333V41.6667H31.6667V33.3333H38.3333V28.3333C38.3333 21.6667 41.6667 16.6667 48.3333 16.6667C53.1667 16.6667 55 18.3333 55 18.3333V25Z" fill="url(#paint0_linear_14_24)"/>
<path d="M61.6667 0H8.33333C3.73333 0 0 3.73333 0 8.33333V61.6667C0 66.2667 3.73333 70 8.33333 70H61.6667C66.2667 70 70 66.2667 70 61.6667V8.33333C70 3.73333 66.2667 0 61.6667 0ZM55 25H51.6667C48.1 25 46.6667 25.8333 46.6667 28.3333V33.3333H55L53.3333 41.6667H46.6667V66.6667H38.3333V41.6667H31.6667V33.3333H38.3333V28.3333C38.3333 21.6667 41.6667 16.6667 48.3333 16.6667C53.1667 16.6667 55 18.3333 55 18.3333V25Z" fill="url(#paint1_linear_14_24)"/>
<defs>
<linearGradient id="paint0_linear_14_24" x1="35" y1="0" x2="35" y2="70" gradientUnits="userSpaceOnUse">
<stop/>
<stop offset="1" stop-opacity="0"/>
</linearGradient>
<linearGradient id="paint1_linear_14_24" x1="35" y1="0" x2="35" y2="70" gradientUnits="userSpaceOnUse">
<stop stop-color="#FFCCAA"/>
<stop offset="1" stop-color="#D4966A"/>
</linearGradient>
</defs>
</svg>
