<svg width="70" height="70" viewBox="0 0 70 70" fill="none" xmlns="http://www.w3.org/2000/svg">
<path d="M20.6818 0C9.275 0 0 9.275 0 20.6818V49.3182C0 60.725 9.275 70 20.6818 70H49.3182C60.725 70 70 60.725 70 49.3182V20.6818C70 9.275 60.725 0 49.3182 0H20.6818ZM54.0909 12.7273C55.8409 12.7273 57.2727 14.1591 57.2727 15.9091C57.2727 17.6591 55.8409 19.0909 54.0909 19.0909C52.3409 19.0909 50.9091 17.6591 50.9091 15.9091C50.9091 14.1591 52.3409 12.7273 54.0909 12.7273ZM35 17.5C44.6568 17.5 52.5 25.3432 52.5 35C52.5 44.6568 44.6568 52.5 35 52.5C25.3432 52.5 17.5 44.6568 17.5 35C17.5 25.3432 25.3432 17.5 35 17.5ZM35 20.6818C27.1091 20.6818 20.6818 27.1091 20.6818 35C20.6818 42.8909 27.1091 49.3182 35 49.3182C42.8909 49.3182 49.3182 42.8909 49.3182 35C49.3182 27.1091 42.8909 20.6818 35 20.6818Z" fill="url(#paint0_linear_14_22)"/>
<defs>
<linearGradient id="paint0_linear_14_22" x1="35" y1="0" x2="35" y2="70" gradientUnits="userSpaceOnUse">
<stop stop-color="#FFCCAA"/>
<stop offset="1" stop-color="#D4966A"/>
</linearGradient>
</defs>
</svg>
