<svg width="426" height="91" viewBox="0 0 426 91" fill="none" xmlns="http://www.w3.org/2000/svg">
<path d="M45 0C20.1875 0 0 20.1875 0 45C0 69.8125 20.1875 90 45 90C69.8125 90 90 69.8125 90 45C90 20.1875 69.8125 0 45 0ZM45 87C21.8411 87 3 68.1589 3 45C3 21.8411 21.8411 3 45 3C68.1589 3 87 21.8411 87 45C87 68.1589 68.1589 87 45 87Z" fill="#552200"/>
<path d="M21.4821 27.6179C20.6542 27.6179 19.9824 28.2889 19.9824 29.1176V61.5229C19.9824 62.3516 20.6542 63.0226 21.4821 63.0226H40.6589C41.4869 63.0226 42.1586 62.3516 42.1586 61.5229V29.1176C42.1586 28.2889 41.4862 27.6179 40.6582 27.6179H21.4821ZM39.1574 60.0232H22.9814V30.6179H39.1574V60.0232Z" fill="#552200"/>
<path d="M12.5 23.275V26.2752H15.6411V65.8645C15.6411 66.6931 16.3128 67.3642 17.1408 67.3642H19.0179V70.7249H22.0181V67.3642H67.9824V70.7249H70.9826V67.3642H72.8597C73.6877 67.3642 74.3594 66.6931 74.3594 65.8645V26.2752H77.5005V23.275H12.5ZM18.6411 26.2752H43.5V64.3645H18.6411V26.2752ZM71.3589 64.3645H46.5V26.2752H71.3589V64.3645Z" fill="#552200"/>
<path d="M49.3429 63.0214H68.5196C69.3476 63.0214 70.0194 62.3504 70.0194 61.5217V29.1164C70.0194 28.2877 69.3476 27.6166 68.5196 27.6166H49.3429C48.5149 27.6166 47.8431 28.2877 47.8431 29.1164V61.5217C47.8424 62.3504 48.5149 63.0214 49.3429 63.0214ZM50.8426 30.6179H67.0186V60.0232H50.8426V30.6179Z" fill="#552200"/>
<path d="M34.4857 32.7946H37.4859V37.4989H34.4857V32.7946Z" fill="#552200"/>
<path d="M52.5143 32.7946H55.5145V37.4989H52.5143V32.7946Z" fill="#552200"/>
<path d="M130.704 5.264H133.328V50H130.192L100.368 9.296V50H97.68V5.264H100.816L130.704 46.032V5.264Z" fill="#552200"/>
<path d="M160.328 16.592C163.528 16.592 166.301 17.3387 168.648 18.832C171.037 20.2827 172.829 22.3307 174.024 24.976C175.261 27.6213 175.859 30.6507 175.816 34.064H146.696C146.824 36.752 147.485 39.12 148.68 41.168C149.875 43.216 151.496 44.816 153.544 45.968C155.592 47.0773 157.896 47.632 160.456 47.632C162.717 47.632 164.808 47.248 166.728 46.48C168.691 45.6693 170.355 44.5173 171.72 43.024L173.256 44.752C171.677 46.4587 169.779 47.7813 167.56 48.72C165.341 49.616 162.931 50.064 160.328 50.064C157.213 50.064 154.419 49.36 151.944 47.952C149.469 46.5013 147.528 44.5173 146.12 42C144.755 39.44 144.072 36.56 144.072 33.36C144.072 30.16 144.776 27.28 146.184 24.72C147.592 22.16 149.512 20.176 151.944 18.768C154.419 17.3173 157.213 16.592 160.328 16.592ZM173.384 31.696C173.128 27.856 171.827 24.784 169.48 22.48C167.133 20.176 164.083 19.024 160.328 19.024C156.573 19.024 153.459 20.1973 150.984 22.544C148.509 24.848 147.101 27.8987 146.76 31.696H173.384Z" fill="#552200"/>
<path d="M178.262 16.656H181.142L192.278 47.12L203.35 16.656H206.23L217.366 47.12L228.438 16.656H231.254L218.646 50H215.894L204.822 20.176L193.622 50H190.87L178.262 16.656Z" fill="#552200"/>
<path d="M238.867 5.264H241.555V26.256H271.828V5.264H274.516V50H271.828V28.88H241.555V50H238.867V5.264Z" fill="#552200"/>
<path d="M301.707 16.592C304.865 16.592 307.681 17.3173 310.155 18.768C312.673 20.176 314.636 22.16 316.044 24.72C317.452 27.2373 318.156 30.096 318.156 33.296C318.156 36.5387 317.452 39.44 316.044 42C314.636 44.5173 312.673 46.5013 310.155 47.952C307.681 49.36 304.865 50.064 301.707 50.064C298.593 50.064 295.777 49.36 293.259 47.952C290.785 46.5013 288.822 44.5173 287.371 42C285.963 39.44 285.259 36.5387 285.259 33.296C285.259 30.096 285.963 27.2373 287.371 24.72C288.822 22.16 290.785 20.176 293.259 18.768C295.777 17.3173 298.593 16.592 301.707 16.592ZM301.707 19.152C299.062 19.152 296.694 19.7493 294.604 20.944C292.513 22.1387 290.87 23.824 289.676 26C288.481 28.1333 287.884 30.5653 287.884 33.296C287.884 36.0693 288.481 38.544 289.676 40.72C290.87 42.896 292.513 44.5813 294.604 45.776C296.694 46.9707 299.062 47.568 301.707 47.568C304.353 47.568 306.721 46.9707 308.811 45.776C310.945 44.5813 312.588 42.896 313.74 40.72C314.934 38.544 315.531 36.0693 315.531 33.296C315.531 30.5653 314.934 28.1333 313.74 26C312.588 23.824 310.945 22.1387 308.811 20.944C306.721 19.7493 304.353 19.152 301.707 19.152Z" fill="#552200"/>
<path d="M355.554 16.656V50H352.93V41.104C351.863 44.0053 350.178 46.224 347.874 47.76C345.613 49.2533 342.839 50.0213 339.554 50.064C335.543 50.064 332.407 48.912 330.146 46.608C327.927 44.304 326.818 41.104 326.818 37.008V16.656H329.442V36.496C329.442 39.9093 330.381 42.576 332.258 44.496C334.135 46.416 336.759 47.376 340.13 47.376C344.141 47.2907 347.277 45.968 349.538 43.408C351.799 40.848 352.93 37.3707 352.93 32.976V16.656H355.554Z" fill="#552200"/>
<path d="M385.162 21.392C382.687 19.8133 379.871 19.024 376.714 19.024C374.239 19.024 372.234 19.5147 370.698 20.496C369.162 21.4347 368.394 22.864 368.394 24.784C368.394 26.064 368.778 27.1307 369.546 27.984C370.314 28.8373 371.274 29.4987 372.426 29.968C373.578 30.4373 375.135 30.9707 377.098 31.568C379.445 32.2933 381.322 32.976 382.73 33.616C384.138 34.256 385.333 35.1733 386.314 36.368C387.338 37.5627 387.85 39.1413 387.85 41.104C387.85 44.048 386.741 46.288 384.522 47.824C382.303 49.3173 379.551 50.064 376.266 50.064C373.919 50.064 371.679 49.6587 369.546 48.848C367.413 48.0373 365.578 46.9067 364.042 45.456L365.258 43.408C366.709 44.7733 368.394 45.8187 370.314 46.544C372.277 47.2693 374.303 47.632 376.394 47.632C378.954 47.632 381.066 47.0987 382.73 46.032C384.437 44.9653 385.29 43.408 385.29 41.36C385.29 39.9947 384.885 38.8853 384.074 38.032C383.306 37.136 382.325 36.432 381.13 35.92C379.935 35.408 378.335 34.8533 376.33 34.256C374.026 33.5307 372.191 32.8693 370.826 32.272C369.461 31.632 368.287 30.736 367.306 29.584C366.325 28.3893 365.834 26.8533 365.834 24.976C365.834 22.2027 366.858 20.112 368.906 18.704C370.997 17.296 373.621 16.592 376.778 16.592C380.277 16.592 383.455 17.4667 386.314 19.216L385.162 21.392Z" fill="#552200"/>
<path d="M409.516 16.592C412.716 16.592 415.489 17.3387 417.836 18.832C420.225 20.2827 422.017 22.3307 423.211 24.976C424.449 27.6213 425.046 30.6507 425.004 34.064H395.884C396.012 36.752 396.673 39.12 397.867 41.168C399.062 43.216 400.684 44.816 402.732 45.968C404.78 47.0773 407.083 47.632 409.643 47.632C411.905 47.632 413.995 47.248 415.915 46.48C417.878 45.6693 419.542 44.5173 420.908 43.024L422.444 44.752C420.865 46.4587 418.966 47.7813 416.747 48.72C414.529 49.616 412.118 50.064 409.516 50.064C406.401 50.064 403.606 49.36 401.132 47.952C398.657 46.5013 396.715 44.5173 395.307 42C393.942 39.44 393.259 36.56 393.259 33.36C393.259 30.16 393.963 27.28 395.371 24.72C396.779 22.16 398.7 20.176 401.132 18.768C403.606 17.3173 406.401 16.592 409.516 16.592ZM422.572 31.696C422.316 27.856 421.014 24.784 418.668 22.48C416.321 20.176 413.27 19.024 409.516 19.024C405.761 19.024 402.646 20.1973 400.172 22.544C397.697 24.848 396.289 27.8987 395.948 31.696H422.572Z" fill="#552200"/>
<path d="M98 60H425V62H98V60Z" fill="#552200"/>
<path d="M100.268 85.172L101.168 73.256L99.422 73.112V72.356H103.058L106.514 82.598L106.91 83.804L107.306 82.562L110.6 72.356H113.966V73.112L112.274 73.256L113.3 85.154L114.938 85.37V86H110.474V85.37L112.04 85.172L111.266 76.37L111.158 73.418L110.744 75.002L106.928 86.126H106.478L102.914 76.064C102.698 75.488 102.512 74.954 102.356 74.462L101.978 73.364L101.87 76.64L101.402 85.154L103.166 85.37V86H98.702V85.37L100.268 85.172Z" fill="#0D5048"/>
<path d="M129.859 75.866C130.807 75.866 131.599 76.1 132.235 76.568C132.871 77.024 133.339 77.636 133.639 78.404C133.939 79.172 134.089 80.024 134.089 80.96C134.077 81.968 133.867 82.874 133.459 83.678C133.063 84.47 132.523 85.094 131.839 85.55C131.155 85.994 130.405 86.216 129.589 86.216C128.581 86.216 127.747 85.976 127.087 85.496C126.439 85.016 125.965 84.38 125.665 83.588C125.365 82.796 125.215 81.926 125.215 80.978C125.215 79.958 125.431 79.064 125.863 78.296C126.295 77.516 126.865 76.916 127.573 76.496C128.293 76.076 129.055 75.866 129.859 75.866ZM129.625 76.658C128.629 76.658 127.879 77.018 127.375 77.738C126.871 78.458 126.619 79.478 126.619 80.798C126.619 82.118 126.883 83.21 127.411 84.074C127.939 84.938 128.713 85.37 129.733 85.37C130.729 85.37 131.467 85.01 131.947 84.29C132.427 83.558 132.667 82.478 132.667 81.05C132.667 79.742 132.409 78.686 131.893 77.882C131.389 77.066 130.633 76.658 129.625 76.658ZM131.245 70.466L132.253 71.564C131.797 72.272 130.711 73.154 128.995 74.21L128.599 73.814L131.245 70.466Z" fill="#0D5048"/>
<path d="M144.002 76.91V76.172H147.638V76.91L146.432 77.072L148.574 82.22L149.438 84.776L150.302 82.328L152.174 77.072L150.986 76.928V76.172H154.334V76.91L153.344 77.072L149.744 86.234H148.826L144.902 77.054L144.002 76.91Z" fill="#0D5048"/>
<path d="M169.044 75.866C170.04 75.842 170.832 76.16 171.42 76.82C172.02 77.468 172.338 78.374 172.374 79.538C172.398 79.958 172.368 80.468 172.284 81.068H165.57C165.558 82.34 165.858 83.348 166.47 84.092C167.094 84.836 167.976 85.208 169.116 85.208C169.608 85.208 170.124 85.148 170.664 85.028C171.204 84.908 171.588 84.77 171.816 84.614L172.104 85.244C171.792 85.532 171.3 85.766 170.628 85.946C169.956 86.126 169.272 86.216 168.576 86.216C167.208 86.216 166.146 85.754 165.39 84.83C164.634 83.906 164.256 82.664 164.256 81.104C164.256 80.12 164.46 79.238 164.868 78.458C165.276 77.666 165.84 77.042 166.56 76.586C167.292 76.13 168.12 75.89 169.044 75.866ZM168.63 76.676C167.838 76.676 167.16 76.97 166.596 77.558C166.044 78.134 165.714 79.01 165.606 80.186H170.952L170.97 79.664C170.97 78.212 170.574 77.27 169.782 76.838C169.446 76.73 169.062 76.676 168.63 76.676Z" fill="#0D5048"/>
<path d="M185.401 71.708C185.701 71.708 185.929 71.798 186.085 71.978C186.241 72.146 186.319 72.362 186.319 72.626C186.319 72.938 186.211 73.196 185.995 73.4C185.779 73.604 185.527 73.706 185.239 73.706C184.987 73.706 184.771 73.622 184.591 73.454C184.411 73.286 184.321 73.07 184.321 72.806C184.321 72.506 184.429 72.248 184.645 72.032C184.873 71.816 185.125 71.708 185.401 71.708ZM186.211 76.19V85.208L187.669 85.37V86H183.439V85.37L184.951 85.208V77.54L183.691 77.054V76.604L185.887 76.028L186.211 76.19Z" fill="#0D5048"/>
<path d="M199.371 83.534L199.659 84.686C199.971 84.938 200.301 85.118 200.649 85.226C200.997 85.334 201.393 85.388 201.837 85.388C202.545 85.388 203.109 85.238 203.529 84.938C203.961 84.638 204.177 84.188 204.177 83.588C204.177 83.276 204.087 83.012 203.907 82.796C203.739 82.58 203.523 82.4 203.259 82.256C202.995 82.1 202.635 81.92 202.179 81.716L201.549 81.428C200.721 81.044 200.067 80.636 199.587 80.204C199.107 79.76 198.867 79.202 198.867 78.53C198.867 77.942 199.041 77.45 199.389 77.054C199.737 76.658 200.175 76.364 200.703 76.172C201.243 75.968 201.795 75.866 202.359 75.866C202.887 75.866 203.379 75.932 203.835 76.064C204.291 76.184 204.651 76.334 204.915 76.514V78.278H204.339L204.015 77.252C203.607 76.844 203.043 76.64 202.323 76.64C201.639 76.64 201.099 76.784 200.703 77.072C200.319 77.36 200.127 77.78 200.127 78.332C200.127 78.752 200.289 79.088 200.613 79.34C200.937 79.592 201.441 79.886 202.125 80.222L202.575 80.438C202.671 80.486 203.013 80.642 203.601 80.906C204.189 81.158 204.645 81.488 204.969 81.896C205.293 82.304 205.455 82.772 205.455 83.3C205.455 84.224 205.107 84.944 204.411 85.46C203.727 85.964 202.839 86.216 201.747 86.216C200.631 86.216 199.629 85.964 198.741 85.46V83.534H199.371Z" fill="#0D5048"/>
<path d="M244.326 85.154V73.256L242.832 73.148V72.356H244.974C245.238 72.356 245.604 72.338 246.072 72.302C246.912 72.254 247.596 72.23 248.124 72.23C249.564 72.23 250.674 72.542 251.454 73.166C252.246 73.778 252.642 74.828 252.642 76.316C252.642 77.216 252.408 78.008 251.94 78.692C251.472 79.364 250.854 79.88 250.086 80.24C249.33 80.6 248.532 80.78 247.692 80.78H246.648C246.156 80.78 245.832 80.792 245.676 80.816V85.154L248.088 85.37V86H242.598V85.37L244.326 85.154ZM245.676 79.952C246.156 80.024 246.78 80.06 247.548 80.06C248.664 80.048 249.558 79.778 250.23 79.25C250.914 78.71 251.256 77.75 251.256 76.37C251.256 75.23 250.938 74.384 250.302 73.832C249.678 73.268 248.742 73.004 247.494 73.04L246.99 73.076C246.918 73.076 246.738 73.088 246.45 73.112C246.162 73.136 245.904 73.178 245.676 73.238V79.952Z" fill="#0D5048"/>
<path d="M264.791 85.208V72.95L263.351 72.698V72.05L265.799 71.744L266.123 71.942V85.226L267.689 85.37V86H263.261V85.37L264.791 85.208Z" fill="#0D5048"/>
<path d="M282.122 76.01C283.142 76.01 283.958 76.244 284.57 76.712C285.182 77.18 285.488 78.002 285.488 79.178L285.47 85.352H286.604V85.856C286.172 86.072 285.668 86.18 285.092 86.18C284.828 86.18 284.63 86.144 284.498 86.072C284.378 86 284.3 85.886 284.264 85.73C284.228 85.562 284.21 85.31 284.21 84.974C283.538 85.79 282.506 86.198 281.114 86.198C280.598 86.198 280.124 86.084 279.692 85.856C279.272 85.628 278.936 85.31 278.684 84.902C278.444 84.494 278.324 84.032 278.324 83.516C278.324 82.712 278.642 82.064 279.278 81.572C279.914 81.068 280.676 80.714 281.564 80.51C282.464 80.294 283.334 80.186 284.174 80.186V79.34C284.174 78.44 283.952 77.822 283.508 77.486C283.064 77.15 282.428 76.982 281.6 76.982C281.24 76.982 280.802 77.054 280.286 77.198C279.782 77.33 279.338 77.498 278.954 77.702L278.702 77.054C279.098 76.73 279.644 76.478 280.34 76.298C281.036 76.106 281.63 76.01 282.122 76.01ZM284.156 80.96C283.04 80.96 282.008 81.14 281.06 81.5C280.112 81.848 279.638 82.436 279.638 83.264C279.638 84.608 280.4 85.28 281.924 85.28C282.356 85.28 282.776 85.184 283.184 84.992C283.604 84.8 283.922 84.602 284.138 84.398L284.156 80.96Z" fill="#0D5048"/>
<path d="M298.695 85.226V77.612L297.417 77.054V76.604L299.523 76.028L299.865 76.208V77.414C300.297 77.066 300.861 76.748 301.557 76.46C302.265 76.16 302.901 76.004 303.465 75.992C304.197 75.956 304.779 76.076 305.211 76.352C305.643 76.616 305.955 77.06 306.147 77.684C306.339 78.296 306.435 79.124 306.435 80.168V85.226L307.857 85.37V86H303.753V85.37L305.103 85.208V80.402C305.103 79.598 305.043 78.956 304.923 78.476C304.803 77.984 304.593 77.624 304.293 77.396C303.993 77.156 303.567 77.036 303.015 77.036C302.559 77.036 302.073 77.126 301.557 77.306C301.053 77.486 300.549 77.75 300.045 78.098V85.208L301.413 85.37V86H297.453V85.37L298.695 85.226Z" fill="#0D5048"/>
<path d="M323.116 75.866C324.112 75.842 324.904 76.16 325.492 76.82C326.092 77.468 326.41 78.374 326.446 79.538C326.47 79.958 326.44 80.468 326.356 81.068H319.642C319.63 82.34 319.93 83.348 320.542 84.092C321.166 84.836 322.048 85.208 323.188 85.208C323.68 85.208 324.196 85.148 324.736 85.028C325.276 84.908 325.66 84.77 325.888 84.614L326.176 85.244C325.864 85.532 325.372 85.766 324.7 85.946C324.028 86.126 323.344 86.216 322.648 86.216C321.28 86.216 320.218 85.754 319.462 84.83C318.706 83.906 318.328 82.664 318.328 81.104C318.328 80.12 318.532 79.238 318.94 78.458C319.348 77.666 319.912 77.042 320.632 76.586C321.364 76.13 322.192 75.89 323.116 75.866ZM322.702 76.676C321.91 76.676 321.232 76.97 320.668 77.558C320.116 78.134 319.786 79.01 319.678 80.186H325.024L325.042 79.664C325.042 78.212 324.646 77.27 323.854 76.838C323.518 76.73 323.134 76.676 322.702 76.676Z" fill="#0D5048"/>
<path d="M339.455 71.582C339.767 71.582 339.995 71.666 340.139 71.834C340.295 72.002 340.373 72.224 340.373 72.5C340.373 72.812 340.265 73.07 340.049 73.274C339.833 73.466 339.581 73.562 339.293 73.562C339.041 73.562 338.825 73.484 338.645 73.328C338.465 73.16 338.375 72.932 338.375 72.644C338.375 72.344 338.483 72.092 338.699 71.888C338.927 71.684 339.179 71.582 339.455 71.582ZM340.283 76.19V86.108C340.283 87.488 340.007 88.562 339.455 89.33C338.903 90.098 338.147 90.482 337.187 90.482C337.055 90.482 336.887 90.476 336.683 90.464C336.491 90.452 336.377 90.428 336.341 90.392V89.366C336.509 89.426 336.821 89.456 337.277 89.456C337.685 89.456 338.009 89.354 338.249 89.15C338.501 88.946 338.687 88.592 338.807 88.088C338.939 87.596 339.005 86.906 339.005 86.018V77.54L337.691 77.054V76.604L339.959 76.028L340.283 76.19Z" fill="#0D5048"/>
<path d="M355.933 76.01C356.953 76.01 357.769 76.244 358.381 76.712C358.993 77.18 359.299 78.002 359.299 79.178L359.281 85.352H360.415V85.856C359.983 86.072 359.479 86.18 358.903 86.18C358.639 86.18 358.441 86.144 358.309 86.072C358.189 86 358.111 85.886 358.075 85.73C358.039 85.562 358.021 85.31 358.021 84.974C357.349 85.79 356.317 86.198 354.925 86.198C354.409 86.198 353.935 86.084 353.503 85.856C353.083 85.628 352.747 85.31 352.495 84.902C352.255 84.494 352.135 84.032 352.135 83.516C352.135 82.712 352.453 82.064 353.089 81.572C353.725 81.068 354.487 80.714 355.375 80.51C356.275 80.294 357.145 80.186 357.985 80.186V79.34C357.985 78.44 357.763 77.822 357.319 77.486C356.875 77.15 356.239 76.982 355.411 76.982C355.051 76.982 354.613 77.054 354.097 77.198C353.593 77.33 353.149 77.498 352.765 77.702L352.513 77.054C352.909 76.73 353.455 76.478 354.151 76.298C354.847 76.106 355.441 76.01 355.933 76.01ZM357.967 80.96C356.851 80.96 355.819 81.14 354.871 81.5C353.923 81.848 353.449 82.436 353.449 83.264C353.449 84.608 354.211 85.28 355.735 85.28C356.167 85.28 356.587 85.184 356.995 84.992C357.415 84.8 357.733 84.602 357.949 84.398L357.967 80.96Z" fill="#0D5048"/>
<path d="M379.147 71.924V85.352H380.335V85.928C380.143 86.024 379.885 86.102 379.561 86.162C379.237 86.222 378.949 86.252 378.697 86.252C378.337 86.252 378.103 86.174 377.995 86.018C377.887 85.862 377.845 85.556 377.869 85.1C377.605 85.376 377.209 85.634 376.681 85.874C376.153 86.102 375.517 86.216 374.773 86.216C374.101 86.216 373.471 86.042 372.883 85.694C372.307 85.334 371.839 84.782 371.479 84.038C371.131 83.294 370.957 82.364 370.957 81.248C370.957 80.228 371.173 79.31 371.605 78.494C372.049 77.666 372.649 77.024 373.405 76.568C374.173 76.1 375.019 75.866 375.943 75.866C376.627 75.866 377.251 75.974 377.815 76.19V72.932L375.997 72.698V72.05L378.805 71.744L379.147 71.924ZM375.763 76.676C375.199 76.676 374.647 76.82 374.107 77.108C373.579 77.384 373.135 77.846 372.775 78.494C372.427 79.142 372.253 79.982 372.253 81.014C372.253 81.938 372.391 82.712 372.667 83.336C372.955 83.96 373.327 84.422 373.783 84.722C374.239 85.01 374.737 85.154 375.277 85.154C375.757 85.154 376.225 85.082 376.681 84.938C377.137 84.782 377.515 84.56 377.815 84.272V77.45C377.407 76.934 376.723 76.676 375.763 76.676Z" fill="#0D5048"/>
<path d="M395.658 75.866C396.606 75.866 397.398 76.1 398.034 76.568C398.67 77.024 399.138 77.636 399.438 78.404C399.738 79.172 399.888 80.024 399.888 80.96C399.876 81.968 399.666 82.874 399.258 83.678C398.862 84.47 398.322 85.094 397.638 85.55C396.954 85.994 396.204 86.216 395.388 86.216C394.38 86.216 393.546 85.976 392.886 85.496C392.238 85.016 391.764 84.38 391.464 83.588C391.164 82.796 391.014 81.926 391.014 80.978C391.014 79.958 391.23 79.064 391.662 78.296C392.094 77.516 392.664 76.916 393.372 76.496C394.092 76.076 394.854 75.866 395.658 75.866ZM395.424 76.658C394.428 76.658 393.678 77.018 393.174 77.738C392.67 78.458 392.418 79.478 392.418 80.798C392.418 82.118 392.682 83.21 393.21 84.074C393.738 84.938 394.512 85.37 395.532 85.37C396.528 85.37 397.266 85.01 397.746 84.29C398.226 83.558 398.466 82.478 398.466 81.05C398.466 79.742 398.208 78.686 397.692 77.882C397.188 77.066 396.432 76.658 395.424 76.658Z" fill="#0D5048"/>
<path d="M411.925 83.534L412.213 84.686C412.525 84.938 412.855 85.118 413.203 85.226C413.551 85.334 413.947 85.388 414.391 85.388C415.099 85.388 415.663 85.238 416.083 84.938C416.515 84.638 416.731 84.188 416.731 83.588C416.731 83.276 416.641 83.012 416.461 82.796C416.293 82.58 416.077 82.4 415.813 82.256C415.549 82.1 415.189 81.92 414.733 81.716L414.103 81.428C413.275 81.044 412.621 80.636 412.141 80.204C411.661 79.76 411.421 79.202 411.421 78.53C411.421 77.942 411.595 77.45 411.943 77.054C412.291 76.658 412.729 76.364 413.257 76.172C413.797 75.968 414.349 75.866 414.913 75.866C415.441 75.866 415.933 75.932 416.389 76.064C416.845 76.184 417.205 76.334 417.469 76.514V78.278H416.893L416.569 77.252C416.161 76.844 415.597 76.64 414.877 76.64C414.193 76.64 413.653 76.784 413.257 77.072C412.873 77.36 412.681 77.78 412.681 78.332C412.681 78.752 412.843 79.088 413.167 79.34C413.491 79.592 413.995 79.886 414.679 80.222L415.129 80.438C415.225 80.486 415.567 80.642 416.155 80.906C416.743 81.158 417.199 81.488 417.523 81.896C417.847 82.304 418.009 82.772 418.009 83.3C418.009 84.224 417.661 84.944 416.965 85.46C416.281 85.964 415.393 86.216 414.301 86.216C413.185 86.216 412.183 85.964 411.295 85.46V83.534H411.925Z" fill="#0D5048"/>
</svg>
