<svg width="61" height="49" viewBox="0 0 61 49" fill="none" xmlns="http://www.w3.org/2000/svg">
<path d="M52.7406 20.3376C52.7406 22.0923 51.3181 23.5148 49.5634 23.5148C47.8087 23.5148 46.3862 22.0923 46.3862 20.3376C46.3862 18.5829 47.8087 17.1604 49.5634 17.1604C51.3181 17.1604 52.7406 18.5829 52.7406 20.3376Z" fill="#246B61"/>
<path d="M41.3032 20.3376C41.3032 22.0923 39.8808 23.5148 38.126 23.5148C36.3713 23.5148 34.9488 22.0923 34.9488 20.3376C34.9488 18.5829 36.3713 17.1604 38.126 17.1604C39.8808 17.1604 41.3032 18.5829 41.3032 20.3376Z" fill="#246B61"/>
<path d="M29.8659 20.3376C29.8659 22.0923 28.4434 23.5148 26.6887 23.5148C24.934 23.5148 23.5115 22.0923 23.5115 20.3376C23.5115 18.5829 24.934 17.1604 26.6887 17.1604C28.4434 17.1604 29.8659 18.5829 29.8659 20.3376Z" fill="#246B61"/>
<path d="M57.4288 31.6344C59.7384 28.4143 60.9864 24.5542 61 20.5914C61 9.24338 50.7447 0.00417263 38.1253 0.00417263C34.2507 -0.0690134 30.4187 0.821551 26.9733 2.59588C23.5285 4.37063 20.5785 6.97377 18.3889 10.171C18.2833 10.1574 18.1766 10.1574 18.071 10.171C7.76509 11.3398 0 19.0664 0 28.2671C0.00850994 31.7693 1.13012 35.178 3.20224 38.0016L0.927515 46.7064C0.820715 47.1804 0.993467 47.6735 1.37258 47.9773C1.77851 48.2939 2.33548 48.3339 2.78308 48.079L10.1663 43.9487C13.443 45.6375 17.0789 46.5098 20.765 46.4907C26.0143 46.5519 31.116 44.7508 35.163 41.4072C35.2898 41.2975 35.3932 41.1634 35.4681 41.0132C36.3493 41.1192 37.2364 41.1741 38.1241 41.1783C42.2276 41.1885 46.2697 40.1844 49.8925 38.2556L58.1021 43.0339C58.297 43.1539 58.5212 43.2156 58.7501 43.2118C59.025 43.2118 59.2926 43.1224 59.5126 42.9577C59.9006 42.6599 60.0836 42.1655 59.9828 41.6868L57.4288 31.6344ZM10.7644 41.3945C10.3712 41.1678 9.8866 41.1678 9.49344 41.3945L4.1437 44.4828L5.80865 38.1289C5.90864 37.7511 5.82865 37.3473 5.59207 37.0358C3.61777 34.5394 2.54342 31.4499 2.54211 28.2672C2.54211 20.8457 8.61698 14.4661 16.89 12.9281C15.8237 15.3296 15.2659 17.9255 15.2505 20.553C15.2505 30.0203 22.2652 38.1284 32.1778 40.479C28.8122 42.7835 24.8197 43.9991 20.7405 43.9609C17.2501 43.9758 13.8144 43.0922 10.7644 41.3945ZM50.5413 35.6886C50.1482 35.4614 49.6636 35.4614 49.2704 35.6886C44.8367 38.2062 39.6819 39.1513 34.6436 38.3701C24.8708 36.8578 17.7926 29.3981 17.7926 20.591C17.8028 17.6432 18.6015 14.7515 20.1056 12.2163C22.0203 9.18717 24.6861 6.70483 27.8436 5.01058C31.0008 3.31578 34.5431 2.46658 38.1258 2.54566C49.3344 2.54566 58.4593 10.6407 58.4593 20.5916C58.4482 24.2143 57.247 27.7324 55.0408 30.6053C54.8081 30.9138 54.7285 31.3116 54.8247 31.6857L56.7692 39.3106L50.5413 35.6886Z" fill="#246B61"/>
</svg>
