<svg width="62" height="64" viewBox="0 0 62 64" fill="none" xmlns="http://www.w3.org/2000/svg">
<path d="M26.0671 6.59927C26.0671 7.70547 25.1693 8.60161 24.062 8.60161C22.9542 8.60161 22.0569 7.70547 22.0569 6.59927C22.0569 5.49351 22.9542 4.59693 24.062 4.59693C25.1693 4.59693 26.0671 5.49351 26.0671 6.59927Z" fill="#246B61"/>
<path d="M31.8544 61.3304H3.47578C3.03268 61.3304 2.67373 60.9715 2.67373 60.5294V11.4047C2.67373 10.9626 3.03268 10.6037 3.47578 10.6037H12.0311V12.1793C12.0311 12.8188 12.2835 13.433 12.7342 13.8875C13.1845 14.3425 13.7963 14.6018 14.4372 14.6085H33.6862C34.3267 14.6018 34.9386 14.3425 35.3892 13.8875C35.8395 13.433 36.0923 12.8189 36.0923 12.1793V10.6037H44.6476H44.6472C45.0903 10.6037 45.4492 10.9626 45.4492 11.4047V29.293C45.4492 30.03 46.0481 30.6276 46.7861 30.6276C47.5242 30.6276 48.123 30.03 48.123 29.293V11.4047C48.1195 10.4853 47.752 9.60483 47.1012 8.95448C46.45 8.30461 45.5678 7.93767 44.6472 7.93408H35.9853C35.7768 6.91012 35.2218 5.98941 34.4135 5.32567C33.6056 4.66239 32.5932 4.29634 31.5472 4.28963H30.3038C29.6557 2.59703 28.3456 1.24059 26.6753 0.531646C25.005 -0.177216 23.1176 -0.177216 21.4473 0.531646C19.7769 1.24051 18.4673 2.59703 17.8188 4.28963H16.5754C15.5294 4.29634 14.5175 4.66239 13.7091 5.32567C12.9013 5.98939 12.3462 6.91015 12.1377 7.93408H3.47537C2.55472 7.93766 1.67261 8.30461 1.02181 8.95448C0.370591 9.60479 0.00358629 10.4853 0 11.4047V60.5294C0.00358056 61.4488 0.370591 62.3292 1.02181 62.9796C1.67257 63.6295 2.55474 63.9964 3.47537 64H31.854C32.5921 64 33.1909 63.4024 33.1909 62.665C33.1909 61.9279 32.5921 61.3304 31.854 61.3304H31.8544ZM14.7044 8.90916C14.6937 8.40277 14.8848 7.91336 15.2357 7.5478C15.5866 7.1822 16.069 6.97079 16.5757 6.96051H19.9177L20.1316 5.87934C20.3791 4.66272 21.1771 3.6294 22.2924 3.0819C23.4082 2.53438 24.7147 2.53438 25.8305 3.0819C26.9458 3.62942 27.7443 4.66272 27.9913 5.87934L28.2052 6.96051H31.5472C32.0543 6.97079 32.5364 7.1822 32.8872 7.5478C33.2381 7.91341 33.4292 8.40282 33.4185 8.90916V11.9394H14.7045L14.7044 8.90916Z" fill="#246B61"/>
<path d="M16.0415 22.6177H37.4298V25.2874H16.0415V22.6177Z" fill="#246B61"/>
<path d="M10.0262 20.6154C9.13955 20.6154 8.28965 20.9672 7.66302 21.5929C7.03642 22.2191 6.68419 23.0679 6.68419 23.9528C6.68419 24.8377 7.03642 25.6865 7.66302 26.3127C8.28963 26.9384 9.13959 27.2902 10.0262 27.2902C10.9124 27.2902 11.7623 26.9384 12.3889 26.3127C13.016 25.6865 13.3677 24.8377 13.3677 23.9528C13.3677 23.0679 13.016 22.2191 12.3889 21.5929C11.7623 20.9672 10.9123 20.6154 10.0262 20.6154ZM10.0262 25.9551C9.49403 25.9551 8.98424 25.7442 8.60829 25.3687C8.23234 24.9933 8.02108 24.4838 8.02108 23.9528C8.02108 23.4218 8.23234 22.9123 8.60829 22.5368C8.98424 22.1614 9.49403 21.9504 10.0262 21.9504C10.5579 21.9504 11.0677 22.1614 11.4441 22.5368C11.82 22.9123 12.0313 23.4218 12.0313 23.9528C12.0313 24.4838 11.82 24.9933 11.4441 25.3687C11.0677 25.7442 10.5579 25.9551 10.0262 25.9551Z" fill="#246B61"/>
<path d="M16.0415 35.967H29.4093V38.6367H16.0415V35.967Z" fill="#246B61"/>
<path d="M10.0262 33.9647C9.13955 33.9647 8.28965 34.3165 7.66302 34.9422C7.0364 35.5679 6.68419 36.4167 6.68419 37.3021C6.68419 38.1871 7.03642 39.0358 7.66302 39.6615C8.28963 40.2877 9.13959 40.639 10.0262 40.639C10.9124 40.639 11.7623 40.2877 12.3889 39.6615C13.016 39.0358 13.3677 38.187 13.3677 37.3021C13.3677 36.4167 13.016 35.5679 12.3889 34.9422C11.7623 34.3165 10.9123 33.9647 10.0262 33.9647ZM10.0262 39.3044C9.49403 39.3044 8.98424 39.0935 8.60829 38.718C8.23234 38.3421 8.02108 37.8331 8.02108 37.3021C8.02108 36.7707 8.23234 36.2616 8.60829 35.8861C8.98424 35.5107 9.49403 35.2997 10.0262 35.2997C10.5579 35.2997 11.0677 35.5107 11.4441 35.8861C11.82 36.2616 12.0313 36.7707 12.0313 37.3021C12.0313 37.8331 11.82 38.3421 11.4441 38.718C11.0677 39.0935 10.5579 39.3044 10.0262 39.3044Z" fill="#246B61"/>
<path d="M16.0415 49.3163H26.7353V51.986H16.0415V49.3163Z" fill="#246B61"/>
<path d="M10.0262 47.314C9.13955 47.314 8.28965 47.6653 7.66302 48.2915C7.03642 48.9172 6.68419 49.766 6.68419 50.6509C6.68419 51.5363 7.03642 52.3851 7.66302 53.0108C8.28963 53.6366 9.13959 53.9883 10.0262 53.9883C10.9124 53.9883 11.7623 53.6366 12.3889 53.0108C13.016 52.3851 13.3677 51.5363 13.3677 50.6509C13.3677 49.766 13.016 48.9172 12.3889 48.2915C11.7623 47.6653 10.9123 47.314 10.0262 47.314ZM10.0262 52.6533C9.49403 52.6533 8.98424 52.4423 8.60829 52.0669C8.23234 51.6914 8.02108 51.1824 8.02108 50.6509C8.02108 50.12 8.23234 49.6109 8.60829 49.235C8.98424 48.8596 9.49403 48.6486 10.0262 48.6486C10.5579 48.6486 11.0677 48.8596 11.4441 49.235C11.82 49.6109 12.0313 50.12 12.0313 50.6509C12.0313 51.1824 11.82 51.6914 11.4441 52.0669C11.0677 52.4423 10.5579 52.6533 10.0262 52.6533Z" fill="#246B61"/>
<path d="M46.7862 34.6318C42.8865 34.6318 39.1461 36.1791 36.3887 38.9328C33.6313 41.6865 32.0822 45.4212 32.0822 49.3159C32.0822 53.2101 33.6313 56.9449 36.3887 59.6985C39.1461 62.4526 42.8865 63.9995 46.7862 63.9995C50.6859 63.9995 54.4262 62.4526 57.1837 59.6985C59.9411 56.9449 61.4902 53.2101 61.4902 49.3159C61.4902 45.4212 59.9411 41.6864 57.1837 38.9328C54.4262 36.1792 50.6859 34.6318 46.7862 34.6318ZM46.7862 61.3297C43.5954 61.3297 40.5354 60.064 38.2793 57.8108C36.0231 55.5578 34.7555 52.502 34.7555 49.3156C34.7555 46.1293 36.023 43.0735 38.2793 40.8205C40.5355 38.5674 43.5954 37.3016 46.7862 37.3016C49.977 37.3016 53.037 38.5673 55.2931 40.8205C57.5493 43.0736 58.8169 46.1293 58.8169 49.3156C58.8169 52.502 57.5494 55.5578 55.2931 57.8108C53.037 60.0639 49.977 61.3297 46.7862 61.3297Z" fill="#246B61"/>
<path d="M51.1711 44.3906L44.4875 51.3854L42.3889 49.1962C41.8684 48.7287 41.0753 48.7412 40.57 49.2248C40.0647 49.7084 40.0186 50.4991 40.4639 51.0381L43.5119 54.2419C43.7644 54.5073 44.1144 54.6575 44.4809 54.6575C44.8475 54.6575 45.1975 54.5073 45.4499 54.2419L53.0827 46.2325C53.5281 45.6935 53.482 44.9028 52.9767 44.4192C52.4713 43.9356 51.6783 43.9231 51.1577 44.3906H51.1711Z" fill="#246B61"/>
</svg>
