<svg width="70" height="70" viewBox="0 0 70 70" fill="none" xmlns="http://www.w3.org/2000/svg">
<path d="M16.6667 0C7.48111 0 0 7.48111 0 16.6667V53.3333C0 62.5189 7.48111 70 16.6667 70H53.3333C62.5189 70 70 62.5189 70 53.3333V16.6667C70 7.48111 62.5189 0 53.3333 0H16.6667ZM23.3431 13.4049C24.3898 13.4499 25.351 14.0397 25.931 14.9447C26.591 15.9747 27.6152 17.5732 28.9486 19.6582C30.1652 21.5599 30.2501 24.016 29.1634 25.9993L26.722 29.4727C26.062 30.4127 25.9304 31.6158 26.3737 32.6758C27.0637 34.3258 28.4013 36.8616 30.778 39.2383C33.1547 41.6149 35.6905 42.9526 37.3405 43.6426C38.4005 44.0859 39.6036 43.9543 40.5436 43.2943L44.0169 40.8529C46.0003 39.7662 48.4564 39.8527 50.3581 41.0677C52.4431 42.401 54.0416 43.4253 55.0716 44.0853C55.9766 44.6653 56.5663 45.6265 56.6113 46.6732C56.868 52.6132 52.2661 55.0195 50.9277 55.0195C50.0011 55.0195 38.8606 56.2857 26.2956 43.7207C13.7306 31.1557 14.9967 20.0152 14.9967 19.0885C14.9967 17.7502 17.4031 13.1483 23.3431 13.4049Z" fill="black"/>
<path d="M16.6667 0C7.48111 0 0 7.48111 0 16.6667V53.3333C0 62.5189 7.48111 70 16.6667 70H53.3333C62.5189 70 70 62.5189 70 53.3333V16.6667C70 7.48111 62.5189 0 53.3333 0H16.6667ZM23.3431 13.4049C24.3898 13.4499 25.351 14.0397 25.931 14.9447C26.591 15.9747 27.6152 17.5732 28.9486 19.6582C30.1652 21.5599 30.2501 24.016 29.1634 25.9993L26.722 29.4727C26.062 30.4127 25.9304 31.6158 26.3737 32.6758C27.0637 34.3258 28.4013 36.8616 30.778 39.2383C33.1547 41.6149 35.6905 42.9526 37.3405 43.6426C38.4005 44.0859 39.6036 43.9543 40.5436 43.2943L44.0169 40.8529C46.0003 39.7662 48.4564 39.8527 50.3581 41.0677C52.4431 42.401 54.0416 43.4253 55.0716 44.0853C55.9766 44.6653 56.5663 45.6265 56.6113 46.6732C56.868 52.6132 52.2661 55.0195 50.9277 55.0195C50.0011 55.0195 38.8606 56.2857 26.2956 43.7207C13.7306 31.1557 14.9967 20.0152 14.9967 19.0885C14.9967 17.7502 17.4031 13.1483 23.3431 13.4049Z" fill="url(#paint0_linear_14_33)"/>
<defs>
<linearGradient id="paint0_linear_14_33" x1="35" y1="0" x2="35" y2="70" gradientUnits="userSpaceOnUse">
<stop stop-color="#FFCCAA"/>
<stop offset="1" stop-color="#D4966A"/>
</linearGradient>
</defs>
</svg>
