<svg width="70" height="70" viewBox="0 0 70 70" fill="none" xmlns="http://www.w3.org/2000/svg">
<path d="M35 0C15.6713 0 0 15.6713 0 35C0 49.8283 9.22542 62.4925 22.2454 67.5908C21.9392 64.8229 21.6621 60.5733 22.3679 57.5517C23.0037 54.8217 26.4717 40.1538 26.4717 40.1538C26.4717 40.1538 25.4246 38.0567 25.4246 34.9592C25.4246 30.0913 28.245 26.46 31.7567 26.46C34.7433 26.46 36.1842 28.7029 36.1842 31.3892C36.1842 34.3933 34.2738 38.8821 33.285 43.0413C32.4596 46.5267 35.0321 49.3675 38.4679 49.3675C44.6892 49.3675 49.4696 42.8079 49.4696 33.3404C49.4696 24.9608 43.4496 19.1012 34.8513 19.1012C24.8938 19.1012 19.0488 26.5708 19.0488 34.2913C19.0488 37.2983 20.2067 40.5242 21.6533 42.28C21.9392 42.6271 21.98 42.9304 21.8954 43.2833C21.63 44.3888 21.0408 46.7658 20.9242 47.2529C20.7725 47.8946 20.4167 48.0288 19.7546 47.7196C15.3825 45.6838 12.6496 39.2933 12.6496 34.16C12.6496 23.1204 20.6704 12.9792 35.7758 12.9792C47.9179 12.9792 57.3533 21.63 57.3533 33.1946C57.3533 45.2579 49.7467 54.9646 39.1913 54.9646C35.6446 54.9646 32.3108 53.1212 31.1704 50.9454C31.1704 50.9454 29.4146 57.6275 28.9888 59.2667C28.1983 62.3058 26.0662 66.1179 24.6371 68.4425C27.9125 69.4517 31.3921 70 35 70C54.3288 70 70 54.3288 70 35C70 15.6713 54.3288 0 35 0Z" fill="url(#paint0_linear_14_28)"/>
<path d="M35 0C15.6713 0 0 15.6713 0 35C0 49.8283 9.22542 62.4925 22.2454 67.5908C21.9392 64.8229 21.6621 60.5733 22.3679 57.5517C23.0037 54.8217 26.4717 40.1538 26.4717 40.1538C26.4717 40.1538 25.4246 38.0567 25.4246 34.9592C25.4246 30.0913 28.245 26.46 31.7567 26.46C34.7433 26.46 36.1842 28.7029 36.1842 31.3892C36.1842 34.3933 34.2738 38.8821 33.285 43.0413C32.4596 46.5267 35.0321 49.3675 38.4679 49.3675C44.6892 49.3675 49.4696 42.8079 49.4696 33.3404C49.4696 24.9608 43.4496 19.1012 34.8513 19.1012C24.8938 19.1012 19.0488 26.5708 19.0488 34.2913C19.0488 37.2983 20.2067 40.5242 21.6533 42.28C21.9392 42.6271 21.98 42.9304 21.8954 43.2833C21.63 44.3888 21.0408 46.7658 20.9242 47.2529C20.7725 47.8946 20.4167 48.0288 19.7546 47.7196C15.3825 45.6838 12.6496 39.2933 12.6496 34.16C12.6496 23.1204 20.6704 12.9792 35.7758 12.9792C47.9179 12.9792 57.3533 21.63 57.3533 33.1946C57.3533 45.2579 49.7467 54.9646 39.1913 54.9646C35.6446 54.9646 32.3108 53.1212 31.1704 50.9454C31.1704 50.9454 29.4146 57.6275 28.9888 59.2667C28.1983 62.3058 26.0662 66.1179 24.6371 68.4425C27.9125 69.4517 31.3921 70 35 70C54.3288 70 70 54.3288 70 35C70 15.6713 54.3288 0 35 0Z" fill="url(#paint1_linear_14_28)"/>
<defs>
<linearGradient id="paint0_linear_14_28" x1="35" y1="0" x2="35" y2="70" gradientUnits="userSpaceOnUse">
<stop/>
<stop offset="1" stop-opacity="0"/>
</linearGradient>
<linearGradient id="paint1_linear_14_28" x1="35" y1="0" x2="35" y2="70" gradientUnits="userSpaceOnUse">
<stop stop-color="#FFCCAA"/>
<stop offset="1" stop-color="#D4966A"/>
</linearGradient>
</defs>
</svg>
