<svg width="70" height="70" viewBox="0 0 70 70" fill="none" xmlns="http://www.w3.org/2000/svg">
<path d="M35 0C15.6713 0 0 15.6713 0 35C0 41.566 1.84433 47.6877 4.99023 52.9386L0.313314 70L17.7393 65.4256C22.8356 68.3231 28.7189 70 35 70C54.3288 70 70 54.3288 70 35C70 15.6713 54.3288 0 35 0ZM23.02 18.6735C23.5888 18.6735 24.1732 18.67 24.6777 18.6963C25.3019 18.7109 25.9813 18.7566 26.6317 20.1945C27.4046 21.9037 29.0876 26.1914 29.3034 26.626C29.5192 27.0606 29.6722 27.5725 29.3717 28.1413C29.0859 28.7246 28.9373 29.0777 28.5173 29.5939C28.0827 30.0956 27.6065 30.7187 27.2127 31.0978C26.7781 31.5324 26.3294 32.0089 26.8311 32.8752C27.3327 33.7414 29.075 36.5812 31.6504 38.8737C34.9608 41.8312 37.7539 42.7401 38.623 43.1746C39.4922 43.6092 39.9956 43.5415 40.4972 42.9582C41.0135 42.3894 42.6654 40.4379 43.2487 39.5687C43.8174 38.6995 44.398 38.8499 45.1855 39.1357C45.9847 39.4216 50.2466 41.521 51.1157 41.9556C51.9849 42.3902 52.5547 42.6053 52.7734 42.9582C52.998 43.3228 52.9983 45.0584 52.2778 47.0825C51.5574 49.1038 48.0198 51.0584 46.4331 51.1955C44.8319 51.3442 43.3375 51.9152 36.0254 49.0365C27.2054 45.5627 21.6431 36.529 21.2085 35.9456C20.7739 35.3769 17.6766 31.2489 17.6766 26.9906C17.6766 22.7176 19.9169 20.625 20.7015 19.7559C21.5007 18.8867 22.4367 18.6735 23.02 18.6735Z" fill="black"/>
<path d="M35 0C15.6713 0 0 15.6713 0 35C0 41.566 1.84433 47.6877 4.99023 52.9386L0.313314 70L17.7393 65.4256C22.8356 68.3231 28.7189 70 35 70C54.3288 70 70 54.3288 70 35C70 15.6713 54.3288 0 35 0ZM23.02 18.6735C23.5888 18.6735 24.1732 18.67 24.6777 18.6963C25.3019 18.7109 25.9813 18.7566 26.6317 20.1945C27.4046 21.9037 29.0876 26.1914 29.3034 26.626C29.5192 27.0606 29.6722 27.5725 29.3717 28.1413C29.0859 28.7246 28.9373 29.0777 28.5173 29.5939C28.0827 30.0956 27.6065 30.7187 27.2127 31.0978C26.7781 31.5324 26.3294 32.0089 26.8311 32.8752C27.3327 33.7414 29.075 36.5812 31.6504 38.8737C34.9608 41.8312 37.7539 42.7401 38.623 43.1746C39.4922 43.6092 39.9956 43.5415 40.4972 42.9582C41.0135 42.3894 42.6654 40.4379 43.2487 39.5687C43.8174 38.6995 44.398 38.8499 45.1855 39.1357C45.9847 39.4216 50.2466 41.521 51.1157 41.9556C51.9849 42.3902 52.5547 42.6053 52.7734 42.9582C52.998 43.3228 52.9983 45.0584 52.2778 47.0825C51.5574 49.1038 48.0198 51.0584 46.4331 51.1955C44.8319 51.3442 43.3375 51.9152 36.0254 49.0365C27.2054 45.5627 21.6431 36.529 21.2085 35.9456C20.7739 35.3769 17.6766 31.2489 17.6766 26.9906C17.6766 22.7176 19.9169 20.625 20.7015 19.7559C21.5007 18.8867 22.4367 18.6735 23.02 18.6735Z" fill="url(#paint0_linear_14_35)"/>
<defs>
<linearGradient id="paint0_linear_14_35" x1="35" y1="0" x2="35" y2="70" gradientUnits="userSpaceOnUse">
<stop stop-color="#FFCCAA"/>
<stop offset="1" stop-color="#D4966A"/>
</linearGradient>
</defs>
</svg>
