<svg width="94" height="70" viewBox="0 0 94 70" fill="none" xmlns="http://www.w3.org/2000/svg">
<path d="M91.3761 12.0312C90.5072 7.22046 86.3669 3.71704 81.5621 2.62329C74.3719 1.09375 61.0651 0 46.6678 0C32.279 0 18.7591 1.09375 11.5604 2.62329C6.76418 3.71704 2.61537 6.99829 1.74642 12.0312C0.868952 17.5 0 25.1562 0 35C0 44.8438 0.868952 52.5 1.9594 57.9688C2.83687 62.7795 6.97716 66.283 11.7734 67.3767C19.4066 68.9063 32.4919 70 46.8892 70C61.2866 70 74.3719 68.9063 82.0051 67.3767C86.8013 66.283 90.9416 63.0017 91.8191 57.9688C92.688 52.5 93.7785 44.6216 94 35C93.557 25.1562 92.4666 17.5 91.3761 12.0312ZM34.8943 50.3125V19.6875L61.4995 35L34.8943 50.3125Z" fill="url(#paint0_linear_14_26)"/>
<path d="M91.3761 12.0312C90.5072 7.22046 86.3669 3.71704 81.5621 2.62329C74.3719 1.09375 61.0651 0 46.6678 0C32.279 0 18.7591 1.09375 11.5604 2.62329C6.76418 3.71704 2.61537 6.99829 1.74642 12.0312C0.868952 17.5 0 25.1562 0 35C0 44.8438 0.868952 52.5 1.9594 57.9688C2.83687 62.7795 6.97716 66.283 11.7734 67.3767C19.4066 68.9063 32.4919 70 46.8892 70C61.2866 70 74.3719 68.9063 82.0051 67.3767C86.8013 66.283 90.9416 63.0017 91.8191 57.9688C92.688 52.5 93.7785 44.6216 94 35C93.557 25.1562 92.4666 17.5 91.3761 12.0312ZM34.8943 50.3125V19.6875L61.4995 35L34.8943 50.3125Z" fill="url(#paint1_linear_14_26)"/>
<defs>
<linearGradient id="paint0_linear_14_26" x1="47" y1="0" x2="47" y2="70" gradientUnits="userSpaceOnUse">
<stop/>
<stop offset="1" stop-opacity="0"/>
</linearGradient>
<linearGradient id="paint1_linear_14_26" x1="47" y1="0" x2="47" y2="70" gradientUnits="userSpaceOnUse">
<stop stop-color="#FFCCAA"/>
<stop offset="1" stop-color="#D4966A"/>
</linearGradient>
</defs>
</svg>
